<svg xmlns="http://www.w3.org/2000/svg" viewBox="0 0 18.56 18.56"><defs><style>.cls-1{fill:#13100f;}.cls-2{fill:#d9c4b2;}</style></defs><g id="Calque_2" data-name="Calque 2"><g id="LOGO"><circle class="cls-1" cx="9.28" cy="9.28" r="9.28"/><path class="cls-2" d="M12,6a.62.62,0,0,0,0,1.23A.62.62,0,0,0,12,6Z"/><path class="cls-2" d="M9.28,6.67a2.61,2.61,0,1,0,2.61,2.61A2.61,2.61,0,0,0,9.28,6.67Zm0,4.31A1.7,1.7,0,1,1,11,9.28,1.7,1.7,0,0,1,9.28,11Z"/><path class="cls-2" d="M14.34,7.18A3.71,3.71,0,0,0,14.1,6a2.57,2.57,0,0,0-1.49-1.49,3.71,3.71,0,0,0-1.23-.24c-.54,0-.72,0-2.1,0s-1.55,0-2.1,0A3.71,3.71,0,0,0,6,4.46a2.35,2.35,0,0,0-.9.59,2.35,2.35,0,0,0-.59.9,3.71,3.71,0,0,0-.24,1.23c0,.55,0,.72,0,2.1s0,1.56,0,2.1a3.71,3.71,0,0,0,.24,1.23A2.57,2.57,0,0,0,6,14.1a3.71,3.71,0,0,0,1.23.24c.55,0,.72,0,2.1,0s1.56,0,2.1,0a3.71,3.71,0,0,0,1.23-.24,2.5,2.5,0,0,0,1.49-1.49,3.71,3.71,0,0,0,.24-1.23c0-.54,0-.72,0-2.1S14.36,7.73,14.34,7.18Zm-.92,4.16a2.78,2.78,0,0,1-.17.94,1.66,1.66,0,0,1-1,1,2.78,2.78,0,0,1-.94.17c-.54,0-.7,0-2.06,0s-1.52,0-2.06,0a2.78,2.78,0,0,1-.94-.17,1.54,1.54,0,0,1-.59-.38,1.81,1.81,0,0,1-.38-.59,2.78,2.78,0,0,1-.17-.94c0-.54,0-.7,0-2.06s0-1.52,0-2.06a2.78,2.78,0,0,1,.17-.94,1.66,1.66,0,0,1,1-1,2.78,2.78,0,0,1,.94-.17c.54,0,.7,0,2.06,0s1.52,0,2.06,0a2.78,2.78,0,0,1,.94.17,1.81,1.81,0,0,1,.59.38,1.54,1.54,0,0,1,.38.59,2.78,2.78,0,0,1,.17.94c0,.54,0,.7,0,2.06S13.45,10.8,13.42,11.34Z"/></g></g></svg>