<svg xmlns="http://www.w3.org/2000/svg" xmlns:xlink="http://www.w3.org/1999/xlink" viewBox="0 0 240.94 70.87"><defs><style>.cls-1{fill:#f6f6f6;}.cls-2{fill:url(#Dégradé_sans_nom_763);}.cls-3{fill:#fff;}.cls-4{fill:url(#Dégradé_sans_nom_758);}.cls-5{fill:#13100f;}.cls-6{fill:none;}.cls-7{fill:#13110f;}.cls-8{fill:#34312e;}.cls-9{fill:#7e7f83;}.cls-10{fill:#d9c5b2;}</style><linearGradient id="Dégradé_sans_nom_763" x1="161.35" y1="-5.63" x2="162.27" y2="20.71" gradientUnits="userSpaceOnUse"><stop offset="0.69" stop-color="#fff"/><stop offset="0.89" stop-color="#f8f7f8"/><stop offset="0.97" stop-color="#f3f2f3"/></linearGradient><linearGradient id="Dégradé_sans_nom_758" x1="162.79" y1="40.94" x2="159.91" y2="82.05" gradientUnits="userSpaceOnUse"><stop offset="0.02" stop-color="#f3f2f3"/><stop offset="0.16" stop-color="#faf9fa"/><stop offset="0.37" stop-color="#fff"/></linearGradient></defs><g id="Calque_2" data-name="Calque 2"><g id="ARP"><polygon class="cls-1" points="83.1 0 83.1 23.32 240.94 17.96 240.94 0 83.1 0"/><path class="cls-2" d="M83.1,0V23.32L240.94,18V4a4,4,0,0,0-4-4Z"/><polygon class="cls-3" points="83.1 36.72 240.94 46.41 240.94 17.96 83.1 23.32 83.1 36.72"/><polygon class="cls-1" points="83.1 70.87 240.94 70.87 240.94 46.41 83.1 36.72 83.1 70.87"/><path class="cls-4" d="M83.1,70.87H237a4,4,0,0,0,4-4V46.41L83.1,36.72Z"/><path class="cls-5" d="M7.18,3.22,0,40.73V66.9a4,4,0,0,0,4,4H100.6L114.17,0H11.08A4,4,0,0,0,7.18,3.22Z"/><polygon class="cls-6" points="115.85 0 102.28 70.87 103.25 70.87 116.82 0 115.85 0"/><polygon class="cls-6" points="117.58 0 104.01 70.87 105.53 70.87 119.1 0 117.58 0"/><polygon class="cls-6" points="119.61 0 106.04 70.87 108.03 70.87 121.6 0 119.61 0"/><polygon class="cls-7" points="114.83 0 101.26 70.87 102.28 70.87 115.85 0 114.83 0"/><polygon class="cls-8" points="116.82 0 103.25 70.87 104.01 70.87 117.58 0 116.82 0"/><polygon class="cls-9" points="119.1 0 105.53 70.87 106.04 70.87 119.61 0 119.1 0"/><polygon class="cls-10" points="121.6 0 108.03 70.87 108.29 70.87 121.86 0 121.6 0"/></g><g id="GFX"><path class="cls-10" d="M102.32,36.38a2.8,2.8,0,0,1-.85-.14l-.79-.25a.56.56,0,0,1-.35-.32.57.57,0,0,1,0-.48l.74-1.64a.6.6,0,0,1,.36-.32.64.64,0,0,1,.47.06l1.1.65a13.22,13.22,0,0,0,1.15-6.28l-1.26.22a.58.58,0,0,1-.46-.11.6.6,0,0,1-.22-.42.26.26,0,0,1,.23-.27.25.25,0,0,1,.27.23s0,.06,0,.06a.07.07,0,0,0,.07,0l1.26-.21a.46.46,0,0,1,.39.1.48.48,0,0,1,.19.35,14.67,14.67,0,0,1-.2,3.33,14.4,14.4,0,0,1-1,3.19.48.48,0,0,1-.3.27.51.51,0,0,1-.4-.05l-1.1-.65a.1.1,0,0,0-.07,0s0,0,0,0l-.75,1.64a.16.16,0,0,0,0,.07.11.11,0,0,0,0,0l.79.26a2.28,2.28,0,0,0,2.5-.78,9,9,0,0,0,1.57-3.8,9.07,9.07,0,0,0-.12-4.11,2.27,2.27,0,0,0-2.06-1.61l-.83,0a.06.06,0,0,0-.06,0,.09.09,0,0,0,0,.06l0,.37c.63,0,2.26.11,2.63,1.19a10.53,10.53,0,0,1-.67,6.56.24.24,0,0,1-.32.13.25.25,0,0,1-.14-.33,9.9,9.9,0,0,0,.65-6.2c-.26-.79-1.8-.88-2.37-.84a.23.23,0,0,1-.18-.06.32.32,0,0,1-.09-.17l0-.61a.61.61,0,0,1,.16-.45.59.59,0,0,1,.45-.17l.82,0a2.76,2.76,0,0,1,2.52,2,9.51,9.51,0,0,1,.13,4.34,9.45,9.45,0,0,1-1.66,4A2.76,2.76,0,0,1,102.32,36.38Z"/><path class="cls-10" d="M97.34,61a3.65,3.65,0,1,1,3.81-3.65A3.73,3.73,0,0,1,97.34,61Zm0-6.79a3.15,3.15,0,1,0,3.31,3.14A3.23,3.23,0,0,0,97.34,54.18Z"/><path class="cls-10" d="M97.45,60.39h-.12a.13.13,0,0,1-.11-.13V59.05a6.72,6.72,0,0,1-1.07-.12,3.17,3.17,0,0,0,.43,1.15.13.13,0,0,1,0,.18.13.13,0,0,1-.17,0,3.88,3.88,0,0,1-.49-1.36,5.29,5.29,0,0,1-.83-.29,2.81,2.81,0,0,0,.58,1.07.12.12,0,1,1-.17.18,3,3,0,0,1-.71-1.39,4.28,4.28,0,0,1-.47-.29.18.18,0,0,1,0-.07,3.17,3.17,0,0,1-.1-.76.12.12,0,0,1,.12-.12h.37a4.73,4.73,0,0,1,.07-.7,2.67,2.67,0,0,0-.26.17.14.14,0,0,1-.14,0,.13.13,0,0,1-.06-.13,2.79,2.79,0,0,1,1.25-1.74.12.12,0,0,1,.15.19,2.91,2.91,0,0,0-.57,1,5.34,5.34,0,0,1,.83-.28,3.65,3.65,0,0,1,.48-1.32s0,0,.07,0a4.94,4.94,0,0,1,.9-.13s.06,0,.09,0a.18.18,0,0,1,0,.09v1.2a5.62,5.62,0,0,1,1.06.12,3.74,3.74,0,0,0-.42-1.12.13.13,0,0,1,.13-.2,4.66,4.66,0,0,1,1,.43,3,3,0,0,1,.73,1.38,3.47,3.47,0,0,1,.48.29.13.13,0,0,1,0,.07,3.55,3.55,0,0,1,.11.79.18.18,0,0,1,0,.09.14.14,0,0,1-.09,0h-.37a3.37,3.37,0,0,1-.06.66,1.42,1.42,0,0,0,.25-.16.13.13,0,0,1,.21.11,3,3,0,0,1-1.25,1.78.12.12,0,0,1-.16-.19,2.52,2.52,0,0,0,.58-1.07,5,5,0,0,1-.83.29,3.88,3.88,0,0,1-.49,1.36.08.08,0,0,1-.06,0A3.09,3.09,0,0,1,97.45,60.39Zm0-1.34v1.09a3.47,3.47,0,0,0,.66-.09,3.9,3.9,0,0,0,.4-1.12A6.59,6.59,0,0,1,97.47,59.05Zm2.47-.61c0,.17-.1.33-.15.47a3.34,3.34,0,0,0,.33-.57Zm-3.84.22a6,6,0,0,0,1.12.14V57.45H96A8,8,0,0,0,96.1,58.66Zm1.37-1.21V58.8a6.11,6.11,0,0,0,1.12-.14,8,8,0,0,0,.11-1.21Zm1.48,0a8.63,8.63,0,0,1-.1,1.14,6.87,6.87,0,0,0,.87-.32,4,4,0,0,0,.09-.82Zm-4,.82a6.14,6.14,0,0,0,.86.32,9,9,0,0,1-.09-1.14h-.87A4,4,0,0,0,95,58.27Zm-.51-.3.22.14a6.21,6.21,0,0,1-.06-.66h-.24A3.16,3.16,0,0,0,94.46,58Zm5.6-.77h.24a4.58,4.58,0,0,0-.08-.55L100,56.5A4.94,4.94,0,0,1,100.06,57.2ZM99,57.2h.86a3.6,3.6,0,0,0-.1-.85,5,5,0,0,0-.86-.33A9.48,9.48,0,0,1,99,57.2Zm-1.48,0H98.7A8.14,8.14,0,0,0,98.58,56a5.25,5.25,0,0,0-1.11-.14ZM96,57.2h1.23V55.82A5.35,5.35,0,0,0,96.1,56,8.27,8.27,0,0,0,96,57.2Zm-1.12,0h.87a7.88,7.88,0,0,1,.1-1.18,5.53,5.53,0,0,0-.87.33A5.09,5.09,0,0,0,94.87,57.2Zm.07-1.56a2.62,2.62,0,0,0-.37.64l.19-.1A3.1,3.1,0,0,1,94.94,55.64Zm3.86.11a5.2,5.2,0,0,1,.82.28,2.59,2.59,0,0,0-.57-1h0a5.45,5.45,0,0,0-.58-.29A4.92,4.92,0,0,1,98.8,55.75Zm-2.25-1.14a4,4,0,0,0-.39,1.08,5.62,5.62,0,0,1,1.06-.12V54.51A4.54,4.54,0,0,0,96.55,54.61Z"/></g></g></svg>