<svg xmlns="http://www.w3.org/2000/svg" viewBox="0 0 18.56 18.56"><defs><style>.cls-1{fill:#13100f;}.cls-2,.cls-3{fill:#d9c4b2;}.cls-2{fill-rule:evenodd;}</style></defs><g id="Calque_2" data-name="Calque 2"><g id="LOGO"><circle class="cls-1" cx="9.28" cy="9.28" r="9.28"/><path id="_46" data-name=" 46" class="cls-2" d="M8.71,10.27h0a3.87,3.87,0,0,1-2.33.67H5.87v2.52a.16.16,0,0,1-.06.13.21.21,0,0,1-.13.05H4.43a.18.18,0,0,1-.18-.16V5.86a.2.2,0,0,1,0-.13.16.16,0,0,1,.13-.06l2.12,0a3.2,3.2,0,0,1,2.34.75,2.4,2.4,0,0,1,.77,1.84A2.35,2.35,0,0,1,8.71,10.27Zm-1.07-3h0a1.53,1.53,0,0,0-1.11-.36H5.87V9.64l.58,0A2,2,0,0,0,7.6,9.34,1.25,1.25,0,0,0,8,8.27a1.24,1.24,0,0,0-.39-1Z"/><path id="_47" data-name=" 47" class="cls-3" d="M13.17,6.52a1.32,1.32,0,0,0-.17.75v.44h.88a.16.16,0,0,1,.18.16s0,0,0,0v.87a.16.16,0,0,1,0,.13A.2.2,0,0,1,13.9,9H13v4.48a.2.2,0,0,1-.17.2H11.56a.19.19,0,0,1-.2-.17V9h-.58a.16.16,0,0,1-.13-.06.22.22,0,0,1,0-.13V7.89a.2.2,0,0,1,0-.13.14.14,0,0,1,.13,0h.58V7.38A3.09,3.09,0,0,1,11.64,6a2,2,0,0,1,.72-.81,2.18,2.18,0,0,1,1.09-.27,1.84,1.84,0,0,1,.73.12.16.16,0,0,1,.1.08.28.28,0,0,1,0,.13v1a.27.27,0,0,1-.05.15.17.17,0,0,1-.17,0,1,1,0,0,0-.42-.07A.58.58,0,0,0,13.17,6.52Z"/></g></g></svg>