<svg xmlns="http://www.w3.org/2000/svg" viewBox="0 0 18.56 18.56"><defs><style>.cls-1{fill:#13100f;}.cls-2{fill:#d9c4b2;}</style></defs><g id="Calque_2" data-name="Calque 2"><g id="LOGO"><circle class="cls-1" cx="9.28" cy="9.28" r="9.28"/><path class="cls-2" d="M9.3,4a1.21,1.21,0,0,1,1.3,1.09,2,2,0,0,0-.22.2L9.3,6.4,8.24,5.34,8,5.12A1.22,1.22,0,0,1,9.3,4ZM5.59,5.56c.84-.83,1.64-.27,2.17.26L8.82,6.88l-.37.36h-3A1.2,1.2,0,0,1,5.59,5.56ZM4,9.26C4,8.14,5,7.91,5.74,7.91H7.79s-2.56,2.58-2.64,2.65A1.25,1.25,0,0,1,4,9.26ZM5.6,13c-.83-.83-.28-1.64.25-2.17l5-5c.53-.53,1.37-1,2.16-.25s.28,1.64-.25,2.17l-5,5C7.23,13.24,6.43,13.8,5.6,13Zm3.69,1.57A1.25,1.25,0,0,1,8,13.42a2.55,2.55,0,0,0,.24-.23l1.06-1.06,1.08,1.08.22.21A1.25,1.25,0,0,1,9.29,14.53ZM13,13c-.79.79-1.64.28-2.17-.25L9.77,11.65l.37-.36h3A1.23,1.23,0,0,1,13,13Zm-.2-2.36h-2S13.38,8,13.44,8a1.21,1.21,0,0,1,1.09,1.31C14.53,10.45,13.57,10.62,12.82,10.62Z"/></g></g></svg>