<svg xmlns="http://www.w3.org/2000/svg" viewBox="0 0 24.28 40.46"><defs><style>.cls-1{fill:#d9c4b2;}</style></defs><g id="Calque_2" data-name="Calque 2"><g id="LOGO"><path class="cls-1" d="M24,9.9c-.42.39-.75-2.28-.42-3.65a5.12,5.12,0,0,0,0-1.56c-.2-.12-.52.77-.59,1a35.18,35.18,0,0,0-1.92,10.08c0,4.2-2.26,8.66-8.52,8.85V4.49c.25.7.62,1,1.2,1A.45.45,0,0,0,14.19,5c0-.25-.33-.66-.43-.44-.22.48-1.15-.63-1.15-3A2.28,2.28,0,0,0,12.14,0a2.28,2.28,0,0,0-.47,1.64c0,2.33-.93,3.44-1.15,3-.1-.22-.44.19-.44.44a.45.45,0,0,0,.44.44c.55.06.92-.26,1.17-.9v20c-6.24-.2-8.49-4.65-8.49-8.84A35.18,35.18,0,0,0,1.28,5.67c-.07-.21-.39-1.1-.59-1a5.12,5.12,0,0,0,0,1.56c.33,1.37,0,4-.43,3.65-.17-.17-.36.32-.28.55a.42.42,0,0,0,.54.28c.51-.15.77-.76.88-1.55a31.61,31.61,0,0,1,.88,6.57c0,3.84,1.88,8.2,6.92,9.41a7.92,7.92,0,1,0,8.49,13,.79.79,0,0,0-.23-1c-.22-.1-1.11-.22-.93.4.23.8-2.16,1.86-4,2V25.47c6.92-.19,9.4-5.31,9.4-9.72a31.61,31.61,0,0,1,.88-6.57c.11.79.37,1.4.87,1.55a.43.43,0,0,0,.55-.28C24.33,10.22,24.15,9.73,24,9.9ZM5.06,32.53a7,7,0,0,1,6.63-7v14A7,7,0,0,1,5.06,32.53Z"/><path class="cls-1" d="M9.83,14.21l-1.35,3.6-1-2.58-1,2.58L5.12,14.2a.58.58,0,0,0-.61-.44v0H6.08v0c-.27,0-.41.12-.41.27a1.3,1.3,0,0,0,.1.46l.89,2.28.7-1.87L7,14.1a.51.51,0,0,0-.53-.34v0H8v0c-.29,0-.43.08-.43.27a1.42,1.42,0,0,0,.12.46l.89,2.28.87-2.29a1.74,1.74,0,0,0,.09-.43c0-.19-.11-.28-.42-.29v0h1.15v0C10,13.78,10,13.89,9.83,14.21Z"/><path class="cls-1" d="M17.74,17.67l-1.48-1.85h-.38V17c0,.53.16.6.56.62v.05H14.8v-.05c.4,0,.56-.09.56-.62V14.35c0-.52-.17-.56-.57-.59v0h1.52c1,0,1.6.55,1.6,1.1s-.43.84-1.06.94l.95,1.18c.42.51.53.63.94.69v.05Zm-1.53-3.8a1,1,0,0,0-.33.05V15.6a1.74,1.74,0,0,0,.44.05.91.91,0,0,0,1-.86C17.34,14.24,16.85,13.87,16.21,13.87Z"/></g></g></svg>