<svg xmlns="http://www.w3.org/2000/svg" xmlns:xlink="http://www.w3.org/1999/xlink" viewBox="0 0 240.94 70.87"><defs><style>.cls-1{fill:#f6f6f6;}.cls-2{fill:url(#Dégradé_sans_nom_763);}.cls-3{fill:#fff;}.cls-4{fill:url(#Dégradé_sans_nom_758);}.cls-5{fill:#13100f;}.cls-6{fill:none;}.cls-7{fill:#13110f;}.cls-8{fill:#34312e;}.cls-9{fill:#7e7f83;}.cls-10{fill:#d9c5b2;}</style><linearGradient id="Dégradé_sans_nom_763" x1="161.35" y1="-5.63" x2="162.27" y2="20.71" gradientUnits="userSpaceOnUse"><stop offset="0.69" stop-color="#fff"/><stop offset="0.89" stop-color="#f8f7f8"/><stop offset="0.97" stop-color="#f3f2f3"/></linearGradient><linearGradient id="Dégradé_sans_nom_758" x1="162.79" y1="40.94" x2="159.91" y2="82.05" gradientUnits="userSpaceOnUse"><stop offset="0.02" stop-color="#f3f2f3"/><stop offset="0.16" stop-color="#faf9fa"/><stop offset="0.37" stop-color="#fff"/></linearGradient></defs><g id="Calque_2" data-name="Calque 2"><g id="ARP"><polygon class="cls-1" points="83.1 0 83.1 23.32 240.94 17.96 240.94 0 83.1 0"/><path class="cls-2" d="M83.1,0V23.32L240.94,18V4a4,4,0,0,0-4-4Z"/><polygon class="cls-3" points="83.1 36.72 240.94 46.41 240.94 17.96 83.1 23.32 83.1 36.72"/><polygon class="cls-1" points="83.1 70.87 240.94 70.87 240.94 46.41 83.1 36.72 83.1 70.87"/><path class="cls-4" d="M83.1,70.87H237a4,4,0,0,0,4-4V46.41L83.1,36.72Z"/><path class="cls-5" d="M7.18,3.22,0,40.73V66.9a4,4,0,0,0,4,4H100.6L114.17,0H11.08A4,4,0,0,0,7.18,3.22Z"/><polygon class="cls-6" points="115.85 0 102.28 70.87 103.25 70.87 116.82 0 115.85 0"/><polygon class="cls-6" points="117.58 0 104.01 70.87 105.53 70.87 119.1 0 117.58 0"/><polygon class="cls-6" points="119.61 0 106.04 70.87 108.03 70.87 121.6 0 119.61 0"/><polygon class="cls-7" points="114.83 0 101.26 70.87 102.28 70.87 115.85 0 114.83 0"/><polygon class="cls-8" points="116.82 0 103.25 70.87 104.01 70.87 117.58 0 116.82 0"/><polygon class="cls-9" points="119.1 0 105.53 70.87 106.04 70.87 119.61 0 119.1 0"/><polygon class="cls-10" points="121.6 0 108.03 70.87 108.29 70.87 121.86 0 121.6 0"/></g><g id="GFX"><path class="cls-10" d="M104,17a2.79,2.79,0,0,1-.85-.13l-.79-.26a.58.58,0,0,1-.35-.32.55.55,0,0,1,0-.47l.75-1.65a.54.54,0,0,1,.35-.31.59.59,0,0,1,.47,0l1.11.65a14.58,14.58,0,0,0,1-3.06,13.48,13.48,0,0,0,.19-3.21l-1.26.22a.59.59,0,0,1-.46-.12.58.58,0,0,1-.22-.42.26.26,0,0,1,.24-.27.25.25,0,0,1,.26.24.09.09,0,0,0,0,.06l.07,0,1.26-.22a.53.53,0,0,1,.4.1.54.54,0,0,1,.18.36,14.52,14.52,0,0,1-.19,3.33,14.83,14.83,0,0,1-1,3.18.49.49,0,0,1-.71.22l-1.1-.65h-.07a.06.06,0,0,0,0,0L102.42,16a.06.06,0,0,0,0,.07.08.08,0,0,0,0,.05l.78.25a2.26,2.26,0,0,0,2.5-.78,8.85,8.85,0,0,0,1.57-3.8,8.76,8.76,0,0,0-.12-4.1A2.26,2.26,0,0,0,105.14,6l-.82,0a.1.1,0,0,0-.07,0,.12.12,0,0,0,0,.07l0,.37c.64,0,2.27.11,2.63,1.18a10.54,10.54,0,0,1-.66,6.57.27.27,0,0,1-.33.13.25.25,0,0,1-.13-.33,10,10,0,0,0,.65-6.21c-.27-.79-1.8-.87-2.38-.84a.2.2,0,0,1-.18-.06.21.21,0,0,1-.08-.17l0-.61a.58.58,0,0,1,.17-.45.57.57,0,0,1,.44-.17l.83,0a2.77,2.77,0,0,1,2.51,2,9.33,9.33,0,0,1,.13,4.33,9.35,9.35,0,0,1-1.66,4A2.76,2.76,0,0,1,104,17Z"/><path class="cls-10" d="M102.2,34.16H97.57A1.55,1.55,0,0,1,96,32.61V28.94a.25.25,0,1,1,.5,0v3.67a1,1,0,0,0,1,1h4.63a1.06,1.06,0,0,0,1.06-1v-3.2l-2.83,1.95a1,1,0,0,1-1.08,0L97,29.73a.26.26,0,0,1-.11-.21v-.58a.25.25,0,0,1,.25-.25h5.37a.25.25,0,1,1,0,.5H97.37v.2L99.64,31a.45.45,0,0,0,.5,0l3.22-2.22a.27.27,0,0,1,.26,0,.26.26,0,0,1,.14.22v3.67A1.55,1.55,0,0,1,102.2,34.16Z"/><path class="cls-10" d="M96.16,55.93A3.65,3.65,0,1,1,100,52.28,3.74,3.74,0,0,1,96.16,55.93Zm0-6.79a3.15,3.15,0,1,0,3.31,3.14A3.23,3.23,0,0,0,96.16,49.14Z"/><path class="cls-10" d="M96.27,55.35h-.11a.13.13,0,0,1-.12-.13V54A5.73,5.73,0,0,1,95,53.89,3.42,3.42,0,0,0,95.4,55a.13.13,0,0,1-.21.15,3.88,3.88,0,0,1-.49-1.36,5.34,5.34,0,0,1-.83-.28,2.51,2.51,0,0,0,.59,1.06.13.13,0,0,1,0,.18.11.11,0,0,1-.17,0,2.83,2.83,0,0,1-.72-1.39,3,3,0,0,1-.47-.29.18.18,0,0,1,0-.07,3.17,3.17,0,0,1-.1-.76.13.13,0,0,1,.13-.12h.36a4.73,4.73,0,0,1,.07-.69c-.17.09-.25.16-.26.16a.12.12,0,0,1-.14,0,.11.11,0,0,1-.06-.12,2.8,2.8,0,0,1,1.25-1.75.12.12,0,0,1,.17,0,.14.14,0,0,1,0,.17,2.67,2.67,0,0,0-.58,1,5.34,5.34,0,0,1,.83-.28,3.65,3.65,0,0,1,.48-1.32.1.1,0,0,1,.07,0,4.94,4.94,0,0,1,.9-.13.14.14,0,0,1,.13.13v1.19a6.59,6.59,0,0,1,1.06.12,3.9,3.9,0,0,0-.42-1.12.12.12,0,0,1,0-.14.13.13,0,0,1,.13,0,4.28,4.28,0,0,1,1,.42,3,3,0,0,1,.73,1.38,2.35,2.35,0,0,1,.48.3.08.08,0,0,1,0,.06,3.67,3.67,0,0,1,.11.79.18.18,0,0,1,0,.09.12.12,0,0,1-.09,0h-.37a3.55,3.55,0,0,1-.06.67c.17-.1.25-.17.26-.17a.13.13,0,0,1,.2.11A2.94,2.94,0,0,1,98,54.8a.12.12,0,0,1-.17,0,.12.12,0,0,1,0-.17,2.51,2.51,0,0,0,.59-1.06,5.34,5.34,0,0,1-.83.28,4,4,0,0,1-.5,1.36.15.15,0,0,1-.06.05A4,4,0,0,1,96.27,55.35Zm0-1.34V55.1A3.47,3.47,0,0,0,97,55a3.77,3.77,0,0,0,.4-1.12A5.53,5.53,0,0,1,96.29,54Zm2.47-.61q-.08.27-.15.48a3.09,3.09,0,0,0,.33-.58Zm-3.84.22a5.35,5.35,0,0,0,1.12.14V52.41H94.81A8,8,0,0,0,94.92,53.62Zm1.37-1.21v1.35a5.35,5.35,0,0,0,1.12-.14,8,8,0,0,0,.11-1.21Zm1.48,0a7.46,7.46,0,0,1-.1,1.15,5.17,5.17,0,0,0,.87-.33,4,4,0,0,0,.09-.82Zm-4,.82a5,5,0,0,0,.86.33,9.12,9.12,0,0,1-.09-1.15h-.87A4.71,4.71,0,0,0,93.79,53.23Zm-.51-.3.22.15a6.67,6.67,0,0,1-.06-.67h-.23A2.2,2.2,0,0,0,93.28,52.93Zm5.61-.77h.23a3.15,3.15,0,0,0-.08-.55,1.76,1.76,0,0,0-.22-.14A4.73,4.73,0,0,1,98.89,52.16Zm-1.12,0h.86a3.6,3.6,0,0,0-.1-.85,4.35,4.35,0,0,0-.86-.32A9.14,9.14,0,0,1,97.77,52.16Zm-1.48,0h1.23a8.27,8.27,0,0,0-.12-1.24,6,6,0,0,0-1.11-.14Zm-1.48,0H96V50.78a6.11,6.11,0,0,0-1.12.14A8.39,8.39,0,0,0,94.81,52.16Zm-1.12,0h.87a7.63,7.63,0,0,1,.1-1.17,4.35,4.35,0,0,0-.86.32A4.18,4.18,0,0,0,93.69,52.16Zm.07-1.56a2.62,2.62,0,0,0-.37.64l.19-.1A3.42,3.42,0,0,1,93.76,50.6Zm3.86.11a5.2,5.2,0,0,1,.82.28,2.8,2.8,0,0,0-.57-1h0a5.45,5.45,0,0,0-.58-.29A4.92,4.92,0,0,1,97.62,50.71Zm-2.25-1.14A4,4,0,0,0,95,50.65,6.59,6.59,0,0,1,96,50.53V49.47A4.54,4.54,0,0,0,95.37,49.57Z"/></g></g></svg>