<svg xmlns="http://www.w3.org/2000/svg" viewBox="0 0 18.56 18.56"><defs><style>.cls-1{fill:#13100f;}.cls-2{fill:#d9c4b2;}</style></defs><g id="Calque_2" data-name="Calque 2"><g id="LOGO"><circle class="cls-1" cx="9.28" cy="9.28" r="9.28"/><path class="cls-2" d="M8.38,9a1.5,1.5,0,0,0,.49-.37,1.45,1.45,0,0,0,.3-1,1.66,1.66,0,0,0-.3-1A2,2,0,0,0,7.19,6H4.05v6.5H7a4.49,4.49,0,0,0,.92-.09A1.81,1.81,0,0,0,8.63,12a1.62,1.62,0,0,0,.46-.51,1.9,1.9,0,0,0,.29-1,1.83,1.83,0,0,0-.25-1A1.46,1.46,0,0,0,8.38,9Zm-3-1.88H6.76a2.4,2.4,0,0,1,.77.1.59.59,0,0,1,.35.6.61.61,0,0,1-.27.57,1.26,1.26,0,0,1-.69.16H5.34Zm2.24,4.13a1.67,1.67,0,0,1-.66.11H5.34V9.59h1.6a1.59,1.59,0,0,1,.65.11.69.69,0,0,1,.42.69A.83.83,0,0,1,7.58,11.21Z"/><path class="cls-2" d="M12.9,11.37a1,1,0,0,1-.69.22,1.33,1.33,0,0,1-.7-.18,1.16,1.16,0,0,1-.5-1h3.5a6.3,6.3,0,0,0,0-1,2.53,2.53,0,0,0-.38-1,2,2,0,0,0-.83-.71,2.75,2.75,0,0,0-1.13-.22,2.32,2.32,0,0,0-1.72.66,2.62,2.62,0,0,0-.66,1.92A2.32,2.32,0,0,0,10.48,12a2.64,2.64,0,0,0,1.69.59,2.32,2.32,0,0,0,1.81-.7,1.57,1.57,0,0,0,.47-.87H13.16A1,1,0,0,1,12.9,11.37ZM11.38,8.83a1,1,0,0,1,.75-.28,1.11,1.11,0,0,1,.74.26,1.08,1.08,0,0,1,.34.76H11A1.31,1.31,0,0,1,11.38,8.83Z"/><rect class="cls-2" x="10.63" y="6.32" width="2.82" height="0.66"/></g></g></svg>